<?xml version="1.0" encoding="UTF-8" standalone="no"?>
<!-- Created with Inkscape (http://www.inkscape.org/) -->
<svg
   xmlns:svg="http://www.w3.org/2000/svg"
   xmlns="http://www.w3.org/2000/svg"
   version="1.0"
   width="956.69287"
   height="314.29132"
   id="svg2">
  <defs
     id="defs4" />
  <g
     transform="translate(-877.03223,-264.61308)"
     id="layer1">
    <g
       transform="translate(35.433051,35.495956)"
       id="g5544">
      <path
         d="M 1187.5653,330.47776 L 1148.8174,404.43544 C 1146.3065,409.59733 1145.5646,408.62202 1144.8072,403.17479 C 1144.4804,400.90255 1133.1346,330.47776 1133.1346,330.47776 L 1078.7402,330.47776 C 1078.7402,330.47776 1095.9897,434.08908 1095.9897,434.20841 C 1096.3944,436.65185 1097.8106,446.44131 1098.4073,450.70048 C 1102.4538,477.98846 1085.4584,476.55145 1072.3955,475.93408 C 1066.3153,475.65396 1059.732,474.73053 1055.9812,474.35181 C 1055.9812,474.35181 1055.0526,474.30512 1054.9903,474.30512 C 1054.1603,478.00921 1050.6741,504.17661 1050.6741,504.17661 C 1050.6741,504.17661 1070.8184,508.08308 1087.5284,507.90669 C 1105.0062,507.77699 1127.319,505.66554 1143.4376,489.96715 C 1150.2181,483.39419 1156.4072,474.34143 1164.1371,461.52232 L 1236.0299,330.47776 L 1187.5653,330.47776"
         style="fill:#2463a7;fill-opacity:1;fill-rule:nonzero;stroke:none"
         id="path5158" />
      <path
         d="M 906.27606,264.88805 L 899.79125,300.06152 L 984.64856,300.06152 C 985.68093,300.06152 986.62512,300.66333 987.07129,301.59195 C 987.24245,301.93432 987.33584,302.28192 987.33584,302.62433 C 987.33584,303.27798 987.17505,303.88494 986.69775,304.35705 C 986.69775,304.35705 883.89057,419.96781 883.01902,420.94831 C 882.80631,422.05332 878.03348,445.57491 877.03223,450.66935 C 883.25244,450.66935 1045.3928,450.66935 1045.3928,450.66935 L 1052.2511,415.47514 L 970.98902,415.47514 C 969.9774,415.47514 969.02284,414.88893 968.6078,413.92918 C 968.42622,413.60752 968.37433,413.25993 968.32764,412.90199 C 968.27576,412.25868 968.49885,411.67247 968.93464,411.16923 C 968.93464,411.16923 1068.9819,299.08102 1069.8535,298.10571 C 1070.0765,296.98513 1075.4719,270.08107 1076.4731,264.88805 C 1070.2892,264.88805 906.27606,264.88805 906.27606,264.88805"
         style="fill:#2463a7;fill-opacity:1;fill-rule:nonzero;stroke:none"
         id="path5162" />
      <path
         d="M 1305.4068,401.26048 C 1307.9799,397.87286 1308.8204,397.87286 1310.413,401.90899 L 1329.359,450.66935 L 1397.2781,450.66935 C 1397.2781,450.66935 1356.1489,351.80492 1356.1386,351.57665 C 1356.0971,350.95931 1428.4466,264.88805 1428.4466,264.88805 L 1370.182,264.88805 L 1337.5558,304.47119 C 1334.9307,307.43862 1333.779,306.57745 1332.6948,303.61001 L 1316.4828,264.88805 L 1250.4884,264.88805 C 1250.4884,264.88805 1286.741,350.22784 1286.7617,350.51314 C 1286.7929,351.07345 1203.5542,450.66935 1203.5542,450.66935 L 1263.8315,450.66935 L 1305.4068,401.26048"
         style="fill:#2463a7;fill-opacity:1;fill-rule:nonzero;stroke:none"
         id="path5166" />
      <path
         d="M 1602.6747,300.06152 C 1603.3699,296.89175 1609.0971,270.04476 1610.2227,264.88805 C 1604.0182,264.88805 1466.328,264.88805 1462.6237,264.88805 C 1461.799,268.55583 1424.6751,444.58922 1423.3885,450.66935 C 1429.5568,450.66935 1570.8056,450.66935 1574.546,450.66935 C 1575.2154,447.4685 1580.8961,420.6059 1582.0425,415.47514 C 1576.0455,415.47514 1497.3463,415.47514 1497.3463,415.47514 C 1496.5369,415.47514 1495.7948,415.12235 1495.276,414.51539 C 1494.8714,414.03294 1494.6796,413.4882 1494.6277,412.90199 C 1494.6277,412.7256 1494.6277,412.51289 1494.7107,412.25868 L 1503.3951,377.51582 C 1503.6387,376.36411 1504.5987,375.59632 1505.7762,375.59632 C 1505.7762,375.59632 1579.2256,375.59632 1582.9141,375.59632 C 1583.6039,372.42137 1589.8345,344.57827 1590.9086,339.45788 C 1585.0619,339.45788 1513.1117,339.45788 1513.1117,339.45788 C 1512.3235,339.45788 1511.5607,339.11033 1511.0522,338.4722 C 1510.6683,338.01569 1510.4351,337.46576 1510.4351,336.88993 C 1510.4351,336.69797 1510.4351,336.49564 1510.4973,336.28811 L 1518.0245,302.01733 C 1518.279,300.85525 1519.2543,300.06152 1520.4372,300.06152 C 1520.4372,300.06152 1598.9754,300.06152 1602.6747,300.06152"
         style="fill:#2463a7;fill-opacity:1;fill-rule:nonzero;stroke:none"
         id="path5170" />
      <path
         d="M 1711.6086,264.61308 C 1705.8034,264.61308 1650.1536,264.61308 1646.5946,264.61308 C 1645.8475,268.29128 1608.682,444.58922 1607.4265,450.66935 C 1613.543,450.66935 1751.6325,450.66935 1755.3679,450.66935 C 1756.0369,447.4685 1761.7853,420.6059 1762.859,415.47514 C 1756.8981,415.47514 1682.9926,415.47514 1682.9926,415.47514 C 1682.2248,415.47514 1681.4412,415.12235 1680.9432,414.51539 C 1680.5281,414.03294 1680.3156,413.4882 1680.3156,412.90199 C 1680.3052,412.7256 1680.3156,412.51289 1680.3156,412.25868 C 1680.3156,412.25868 1710.322,270.73472 1711.6086,264.61308"
         style="fill:#2463a7;fill-opacity:1;fill-rule:nonzero;stroke:none"
         id="path5174" />
    </g>
  </g>
</svg>
